<svg width="48" height="48" viewBox="0 0 48 48" fill="none" xmlns="http://www.w3.org/2000/svg">
<g clip-path="url(#clip0_409_1641)" filter="url(#filter0_dd_409_1641)">
<path d="M9.40111 10.7612C10.4455 10.0312 12.02 10.1712 12.9578 10.9457L11.8822 9.38234C11.0167 8.14789 11.3267 6.81234 12.5622 5.94567C13.7978 5.08234 17.2989 7.40345 17.2989 7.40345C16.4256 6.15678 16.5889 4.57678 17.8356 3.70234C18.4349 3.28354 19.176 3.1198 19.896 3.2471C20.6161 3.37439 21.2561 3.78231 21.6756 4.38123L33.2533 20.7368L31.7778 35.0423L19.4633 30.5512L8.72222 14.6257C8.51277 14.3274 8.36417 13.9909 8.28493 13.6352C8.20569 13.2795 8.19736 12.9116 8.26041 12.5527C8.32346 12.1938 8.45667 11.8508 8.6524 11.5434C8.84813 11.236 9.10255 10.9702 9.40111 10.7612Z" fill="#EF9645"/>
<path d="M6.99445 19.8601C6.99445 19.8601 5.73667 18.0268 7.57111 16.7701C9.40333 15.5134 10.66 17.3457 10.66 17.3457L16.4944 25.8546C16.6956 25.519 16.9156 25.1879 17.1611 24.8612L9.06333 13.0534C9.06333 13.0534 7.80667 11.2212 9.64 9.96456C11.4722 8.70789 12.7289 10.5401 12.7289 10.5401L20.3456 21.6479C20.6289 21.4168 20.9189 21.1846 21.2178 20.9568L12.3878 8.07789C12.3878 8.07789 11.1311 6.24567 12.9644 4.989C14.7967 3.73233 16.0533 5.56455 16.0533 5.56455L24.8833 18.4412C25.2078 18.2423 25.5289 18.0701 25.8511 17.8879L17.5978 5.85233C17.5978 5.85233 16.3411 4.02011 18.1733 2.76344C20.0056 1.50678 21.2622 3.339 21.2622 3.339L29.9889 16.0657L31.3156 18.0012C25.8178 21.7723 25.2944 28.8668 28.4356 33.4479C29.0633 34.3646 29.98 33.7368 29.98 33.7368C26.21 28.2379 27.3611 22.059 32.86 18.289L31.2389 10.1757C31.2389 10.1757 30.6333 8.03789 32.77 7.43122C34.9078 6.82567 35.5144 8.96344 35.5144 8.96344L37.3867 14.5234C38.1289 16.7279 38.9189 18.9246 39.9644 21.0023C42.9167 26.869 41.1533 34.1601 35.5867 37.979C29.5144 42.1423 21.2133 40.5946 17.0489 34.5234L6.99445 19.8601Z" fill="#FFDC5D"/>
<path d="M17.3333 36.2002C12.8889 36.2002 8.39779 31.7091 8.39779 27.2646C8.39779 26.6502 7.94779 26.1535 7.33335 26.1535C6.7189 26.1535 6.17557 26.6502 6.17557 27.2646C6.17557 33.9313 10.6667 38.4224 17.3333 38.4224C17.9478 38.4224 18.4445 37.8791 18.4445 37.2646C18.4445 36.6502 17.9478 36.2002 17.3333 36.2002Z" fill="#5DADEC"/>
<path d="M11.7778 38.3757C8.44444 38.3757 6.22222 36.1535 6.22222 32.8201C6.22222 32.5254 6.10516 32.2428 5.89679 32.0345C5.68841 31.8261 5.4058 31.709 5.11111 31.709C4.81643 31.709 4.53381 31.8261 4.32544 32.0345C4.11706 32.2428 4 32.5254 4 32.8201C4 37.2646 7.33333 40.5979 11.7778 40.5979C12.0725 40.5979 12.3551 40.4808 12.5635 40.2725C12.7718 40.0641 12.8889 39.7815 12.8889 39.4868C12.8889 39.1921 12.7718 38.9095 12.5635 38.7011C12.3551 38.4927 12.0725 38.3757 11.7778 38.3757ZM30.6667 2.82013C30.372 2.82013 30.0894 2.93719 29.881 3.14557C29.6726 3.35394 29.5556 3.63656 29.5556 3.93124C29.5556 4.22593 29.6726 4.50854 29.881 4.71691C30.0894 4.92529 30.372 5.04235 30.6667 5.04235C35.1111 5.04235 39.5556 9.03013 39.5556 13.9312C39.5556 14.2259 39.6726 14.5085 39.881 14.7169C40.0894 14.9253 40.372 15.0424 40.6667 15.0424C40.9614 15.0424 41.244 14.9253 41.4523 14.7169C41.6607 14.5085 41.7778 14.2259 41.7778 13.9312C41.7778 7.80457 37.3333 2.82013 30.6667 2.82013Z" fill="#5DADEC"/>
<path d="M36.2222 0.644592C35.6089 0.644592 35.1111 1.0957 35.1111 1.70904C35.1111 2.32237 35.6089 2.86681 36.2222 2.86681C39.5556 2.86681 41.7311 5.33904 41.7311 8.3757C41.7311 8.98904 42.2744 9.48681 42.8889 9.48681C43.5033 9.48681 43.9533 8.98904 43.9533 8.3757C43.9533 4.11237 40.6667 0.644592 36.2222 0.644592Z" fill="#5DADEC"/>
</g>
<defs>
<filter id="filter0_dd_409_1641" x="0" y="0.5979" width="48" height="48" filterUnits="userSpaceOnUse" color-interpolation-filters="sRGB">
<feFlood flood-opacity="0" result="BackgroundImageFix"/>
<feColorMatrix in="SourceAlpha" type="matrix" values="0 0 0 0 0 0 0 0 0 0 0 0 0 0 0 0 0 0 127 0" result="hardAlpha"/>
<feOffset dy="4"/>
<feGaussianBlur stdDeviation="2"/>
<feComposite in2="hardAlpha" operator="out"/>
<feColorMatrix type="matrix" values="0 0 0 0 0 0 0 0 0 0 0 0 0 0 0 0 0 0 0.25 0"/>
<feBlend mode="normal" in2="BackgroundImageFix" result="effect1_dropShadow_409_1641"/>
<feColorMatrix in="SourceAlpha" type="matrix" values="0 0 0 0 0 0 0 0 0 0 0 0 0 0 0 0 0 0 127 0" result="hardAlpha"/>
<feOffset dy="4"/>
<feGaussianBlur stdDeviation="2"/>
<feComposite in2="hardAlpha" operator="out"/>
<feColorMatrix type="matrix" values="0 0 0 0 0 0 0 0 0 0 0 0 0 0 0 0 0 0 0.25 0"/>
<feBlend mode="normal" in2="effect1_dropShadow_409_1641" result="effect2_dropShadow_409_1641"/>
<feBlend mode="normal" in="SourceGraphic" in2="effect2_dropShadow_409_1641" result="shape"/>
</filter>
<clipPath id="clip0_409_1641">
<rect width="40" height="40" fill="white" transform="translate(4 0.5979)"/>
</clipPath>
</defs>
</svg>
